<?xml version="1.0" encoding="UTF-8"?>
<svg id="Layer_1" data-name="Layer 1" xmlns="http://www.w3.org/2000/svg" xmlns:xlink="http://www.w3.org/1999/xlink" viewBox="0 0 224.6 333.22">
  <defs>
    <style>
      .cls-1 {
        font-family: Questv1-Bold, Questv1;
        font-size: 34.72px;
      }

      .cls-1, .cls-2 {
        fill: #3c32a3;
        font-weight: 700;
      }

      .cls-2 {
        font-family: MicrosoftYaHeiUI-Bold, 'Microsoft YaHei UI';
        font-size: 15.27px;
      }

      .cls-3 {
        fill: url(#linear-gradient);
      }
    </style>
    <linearGradient id="linear-gradient" x1="0" y1="125.96" x2="224.6" y2="125.96" gradientUnits="userSpaceOnUse">
      <stop offset="0" stop-color="#343794"/>
      <stop offset=".88" stop-color="#cf4a9a"/>
    </linearGradient>
  </defs>
  <path class="cls-3" d="M125.94,178.78c.17.42.31.85.4,1.3.09.45.13.9.13,1.35,0,1.83-.73,3.62-2.03,4.91-1.29,1.3-3.09,2.03-4.91,2.03-.45,0-.9-.04-1.36-.13-.44-.09-.87-.23-1.3-.4-.42-.18-.81-.39-1.19-.64-.39-.25-.73-.54-1.06-.86-1.29-1.29-2.03-3.09-2.03-4.91,0-.45.05-.9.14-1.35.09-.45.22-.88.4-1.3.17-.43.39-.82.64-1.2.26-.39.55-.73.86-1.06.33-.32.67-.6,1.06-.86.38-.25.77-.46,1.19-.63.43-.18.86-.31,1.3-.4,2.26-.46,4.65.29,6.27,1.9.32.33.62.68.86,1.06.25.38.47.77.64,1.2ZM66.43,137.73c-.26-.38-.55-.73-.86-1.05-1.62-1.62-4.02-2.35-6.27-1.9-.45.09-.88.23-1.3.41-.42.17-.82.39-1.2.64s-.73.55-1.05.86c-.32.32-.62.67-.86,1.05s-.47.78-.64,1.2c-.18.42-.31.85-.4,1.3-.09.45-.14.9-.14,1.36s.05.9.14,1.36c.09.44.22.87.4,1.3.17.42.39.81.64,1.19.25.39.55.73.86,1.06.32.32.67.61,1.05.86.38.25.78.47,1.2.63.42.18.85.31,1.3.4.45.09.9.14,1.36.14s.9-.05,1.36-.14c.44-.09.87-.22,1.3-.4.42-.17.81-.39,1.19-.63.39-.26.74-.55,1.06-.86.32-.33.61-.67.86-1.06.25-.38.47-.77.64-1.19.18-.43.31-.86.4-1.3.09-.46.14-.91.14-1.36s-.05-.91-.14-1.36c-.09-.45-.22-.88-.4-1.3-.17-.42-.39-.82-.64-1.2ZM117.32,56.45l5.61,3.24c3.32,1.92,7.57.78,9.49-2.54,1.92-3.32.78-7.57-2.54-9.49l-5.61-3.24c-7.38-4.26-16.56-4.26-23.94,0l-49.96,28.84c-3.32,1.92-4.46,6.17-2.54,9.49,1.29,2.23,3.62,3.47,6.02,3.47,1.18,0,2.37-.3,3.47-.93l49.96-28.84c3.1-1.79,6.95-1.79,10.05,0ZM158.32,65.34c-.25-.39-.54-.73-.86-1.06s-.67-.61-1.05-.86c-.38-.25-.78-.47-1.2-.64-.42-.18-.85-.31-1.3-.4-.89-.18-1.82-.18-2.71,0-.45.09-.88.22-1.3.4-.43.17-.82.39-1.2.64-.38.26-.73.55-1.06.86-.32.33-.61.67-.85,1.06-.26.38-.47.77-.64,1.2-.17.42-.31.85-.4,1.3s-.14.9-.14,1.35.05.91.14,1.36c.09.45.23.88.4,1.3.18.42.39.82.64,1.2.25.38.54.73.85,1.05.33.33.68.62,1.06.86.38.26.77.47,1.2.64.42.17.85.31,1.3.4s.9.13,1.35.13.91-.04,1.36-.13.88-.23,1.3-.4c.42-.18.82-.39,1.2-.64.38-.25.73-.54,1.05-.86.33-.32.62-.67.86-1.05.26-.38.47-.78.64-1.2.17-.42.31-.85.4-1.3.09-.45.13-.9.13-1.36s-.04-.9-.13-1.35-.23-.88-.4-1.3c-.18-.43-.39-.82-.64-1.2ZM161.04,60.83c.45,0,.9-.04,1.36-.14.44-.09.87-.22,1.3-.4.42-.17.81-.39,1.19-.64.39-.25.74-.55,1.06-.86s.61-.67.86-1.05c.25-.38.47-.78.64-1.2.18-.43.31-.86.4-1.3.09-.45.14-.9.14-1.36s-.05-.91-.14-1.36c-.09-.44-.22-.87-.4-1.3-.17-.42-.39-.82-.64-1.2-.26-.38-.55-.73-.86-1.05-.32-.32-.67-.61-1.06-.86-.38-.25-.77-.47-1.19-.63-.43-.18-.86-.31-1.3-.4-.9-.18-1.83-.18-2.72,0-.45.09-.88.22-1.3.4-.42.17-.82.39-1.2.63-.38.26-.73.55-1.05.86-.32.32-.62.67-.86,1.05s-.47.78-.64,1.2c-.18.43-.31.86-.4,1.3-.1.45-.14.9-.14,1.36s.04.91.14,1.36c.09.44.22.87.4,1.3.17.42.39.82.64,1.2.25.38.55.73.86,1.05.32.32.67.62,1.05.86.38.25.78.47,1.2.64.42.18.85.31,1.3.4.45.1.9.14,1.36.14ZM163.89,40.88c.18.42.39.82.64,1.2.25.38.54.73.86,1.05.32.32.67.62,1.05.86.38.25.78.47,1.2.64.42.17.85.31,1.3.4.45.09.9.13,1.36.13,1.83,0,3.61-.74,4.91-2.03.32-.32.61-.67.86-1.05.25-.38.46-.78.64-1.2.17-.42.31-.85.4-1.3.09-.45.14-.9.14-1.36s-.05-.9-.14-1.35c-.09-.45-.23-.88-.4-1.3-.18-.43-.39-.82-.64-1.2-.26-.39-.55-.73-.86-1.06-1.62-1.61-4.02-2.35-6.27-1.89-.45.09-.88.22-1.3.4-.42.17-.82.39-1.2.63-.38.26-.73.55-1.05.86s-.62.67-.86,1.06c-.26.38-.47.77-.64,1.2-.17.42-.31.85-.4,1.3-.09.45-.13.9-.13,1.35s.04.91.13,1.36c.09.45.23.88.4,1.3ZM35.91,178.08c-3.75,2.16-7.86,3.25-11.97,3.25s-8.22-1.08-11.97-3.25C4.48,173.75,0,166,0,157.35v-53.07c0-.08,0-.17,0-.25v-29.08C0,66.42,4.59,58.47,11.97,54.21L100.33,3.2c7.38-4.26,16.56-4.26,23.94,0l23.37,13.49c3.32,1.92,4.46,6.17,2.54,9.49-1.92,3.32-6.17,4.46-9.49,2.54l-23.37-13.49c-3.1-1.79-6.95-1.79-10.05,0L18.92,66.24c-3.1,1.79-5.02,5.12-5.02,8.7v25.21l23.73,13.7c7.38,4.26,11.97,12.21,11.97,20.73v21.78c0,8.53-4.59,16.47-11.97,20.73l-1.71.99ZM35.7,134.59c0-3.58-1.93-6.91-5.02-8.7l-16.79-9.69v41.16c0,3.63,1.88,6.89,5.02,8.7,3.15,1.82,6.9,1.82,10.05,0l1.71-.99c3.1-1.79,5.03-5.12,5.03-8.7v-21.78ZM224.6,74.94v102.03c0,8.53-4.59,16.47-11.97,20.73l-88.36,51.01c-3.69,2.13-7.83,3.2-11.97,3.2s-8.28-1.07-11.97-3.2l-16.81-9.7c-7.38-4.26-11.97-12.21-11.97-20.73v-21.75l-28.72,16.58c-1.09.63-2.29.93-3.47.93-2.4,0-4.73-1.25-6.02-3.47-1.92-3.32-.78-7.57,2.54-9.49l62.52-36.1-14.89-8.59c-7.38-4.26-11.97-12.21-11.97-20.73v-19.41c0-8.52,4.59-16.47,11.97-20.73l16.81-9.7c7.38-4.26,16.56-4.26,23.94,0l16.81,9.7c7.38,4.26,11.97,12.21,11.97,20.73v19.41c0,8.53-4.59,16.47-11.97,20.73l-1.81,1.04s0,0,0,0l-53.82,31.07v29.77c0,3.58,1.93,6.91,5.02,8.7l14.7,8.49v-19.17c0-8.53,4.59-16.47,11.97-20.73,7.49-4.33,16.44-4.33,23.94,0,7.43,4.29,11.88,11.94,11.96,20.5l21.97-12.68v-72.04c0-3.52-1.88-6.82-4.9-8.63l-3.89-2.32c-3.29-1.97-4.37-6.23-2.4-9.52,1.97-3.29,6.23-4.37,9.52-2.4l3.89,2.32c7.2,4.3,11.66,12.17,11.66,20.55v64.02l16.79-9.69c3.1-1.79,5.02-5.12,5.02-8.7v-66.61l-47.51-27.43c-3.32-1.92-4.46-6.17-2.54-9.49,1.92-3.32,6.17-4.46,9.49-2.54l40.56,23.42v-4.98l-39.06-21.61c-3.36-1.86-4.57-6.08-2.71-9.44,1.86-3.36,6.08-4.57,9.44-2.71l32.2,17.82c-.47-2.97-2.25-5.63-4.89-7.16l-24.78-14.3c-3.32-1.92-4.46-6.17-2.54-9.49s6.17-4.46,9.49-2.54l24.78,14.3c7.38,4.26,11.97,12.21,11.97,20.73ZM107.28,154.07c3.1,1.79,6.95,1.79,10.05,0l16.81-9.7c3.1-1.79,5.02-5.12,5.02-8.7v-19.41c0-3.58-1.93-6.91-5.02-8.7l-16.81-9.7c-3.1-1.79-6.95-1.79-10.05,0l-16.81,9.7c-3.1,1.79-5.02,5.12-5.02,8.7v19.41c0,3.58,1.93,6.91,5.02,8.7l16.81,9.7ZM139.15,216.3c0-3.63-1.88-6.89-5.02-8.7-3.15-1.82-6.9-1.82-10.05,0-3.1,1.79-5.02,5.12-5.02,8.7v19.38l20.1-11.6v-7.78ZM136.66,69.7c.39.22.81.33,1.23.33.86,0,1.7-.45,2.15-1.25l22.9-39.95c.68-1.19.27-2.7-.92-3.39s-2.7-.27-3.39.92l-22.9,39.95c-.68,1.19-.27,2.7.92,3.39Z"/>
  <g>
    <text class="cls-1" transform="translate(15.72 299.68)"><tspan x="0" y="0">شَــــــلفُـــــوف</tspan></text>
    <text class="cls-2" transform="translate(46.96 329.22)"><tspan x="0" y="0">SHALFOF</tspan></text>
  </g>
</svg>